#!OML:ASF F:\VICON\USERDATA\INSTALL\rory3\rory3.ASF
:FULLY-SPECIFIED
:DEGREES
308
root 12.5372 18.2023 14.2712 263.152 87.4925 266.586
lowerback 9.76804 0.82298 1.18895
upperback 0.577436 1.33521 1.44543
thorax -4.88627 0.663636 0.650348
lowerneck -21.4176 -4.74559 -10.8463
upperneck 29.5526 -4.31029 5.68793
head 14.0786 -2.14841 3.39204
rclavicle -6.32384e-015 -1.78906e-015
rhumerus -35.8469 -18.3171 -76.8365
rradius 24.3286
rwrist 11.1905
rhand -14.6002 8.39649
rfingers 7.12502
rthumb 11.5504 -21.2652
lclavicle -6.32384e-015 -1.78906e-015
lhumerus -31.8669 0.673912 87.1819
lradius 27.2045
lwrist -12.7341
lhand -15.3082 26.9469
lfingers 7.12502
lthumb 10.8675 56.6457
rfemur -3.99565 -3.23879 26.0007
rtibia 15.4889
rfoot -6.19359 2.54717
rtoes 7.41428
lfemur -6.62973 -2.76777 -17.6847
ltibia 60.5499
lfoot 14.8394 -11.3442
ltoes 6.69442
309
root 12.6734 18.2066 14.2974 265.991 87.4276 269.528
lowerback 9.86443 1.01865 1.22734
upperback 0.542961 1.60321 1.46052
thorax -4.97682 0.794669 0.605406
lowerneck -21.1831 -4.79044 -10.9597
upperneck 29.5356 -4.38378 5.77796
head 14.0353 -2.18038 3.43597
rclavicle -1.80894e-014 9.54166e-015
rhumerus -35.561 -18.1069 -76.8983
rradius 24.2887
rwrist 11.4114
rhand -14.7288 8.5545
rfingers 7.12502
rthumb 11.4263 -21.1141
lclavicle -1.80894e-014 9.54166e-015
lhumerus -32.0604 1.26966 86.9871
lradius 26.9195
lwrist -13.9543
lhand -15.5486 26.2273
lfingers 7.12502
lthumb 10.6356 55.9382
rfemur -3.05593 -3.25163 26.1688
rtibia 14.8594
rfoot -6.41934 2.60698
rtoes 6.4769
lfemur -7.75325 -2.51046 -17.3972
ltibia 61.8684
lfoot 13.86 -9.56881
ltoes 10.4614
310
root 12.8073 18.2065 14.3162 268.867 87.3302 272.415
lowerback 9.87948 1.22255 1.39171
upperback 0.464666 1.89615 1.49754
thorax -5.06423 0.934952 0.509525
lowerneck -20.8243 -4.86007 -11.2569
upperneck 29.4426 -4.45841 5.92628
head 13.941 -2.22643 3.53321
rclavicle 1.2014e-014 1.13307e-014
rhumerus -35.3322 -17.869 -76.8324
rradius 24.2548
rwrist 11.4598
rhand -14.6707 8.76835
rfingers 7.12502
rthumb 11.4824 -20.8972
lclavicle 1.2014e-014 1.13307e-014
lhumerus -32.3424 1.55435 86.9394
lradius 26.7693
lwrist -14.7828
lhand -15.7854 26.0108
lfingers 7.12502
lthumb 10.4072 55.7333
rfemur -2.38469 -3.42787 26.3571
rtibia 14.5001
rfoot -6.81452 2.77791
rtoes 4.03206
lfemur -8.97898 -2.31962 -17.1632
ltibia 63.0271
lfoot 12.9209 -8.12115
ltoes 13.7723
311
root 12.9358 18.1912 14.3329 269.376 87.0857 272.921
lowerback 9.90161 1.32927 1.76629
upperback 0.415406 2.08327 1.51538
thorax -5.11595 1.01826 0.29037
lowerneck -20.7133 -4.91381 -11.3847
upperneck 29.4809 -4.5172 5.98418
head 13.9469 -2.25822 3.57008
rclavicle 2.76435e-015 1.05356e-014
rhumerus -35.0759 -18.0738 -76.7414
rradius 24.2614
rwrist 11.7011
rhand -14.7333 8.84612
rfingers 7.12502
rthumb 11.4219 -20.8228
lclavicle 2.76435e-015 1.05356e-014
lhumerus -32.6171 1.74933 86.7062
lradius 26.7943
lwrist -15.3121
lhand -15.7964 26.3041
lfingers 7.12502
lthumb 10.3965 56.0271
rfemur -1.80383 -3.79387 26.6603
rtibia 14.2514
rfoot -7.24564 3.06496
rtoes 2.39197
lfemur -10.2147 -1.5974 -16.9243
ltibia 63.9892
lfoot 11.0124 -8.81939
ltoes 3.66518
312
root 13.0609 18.1774 14.3486 268.922 86.9947 272.446
lowerback 9.83777 1.39726 1.95683
upperback 0.447299 2.19107 1.48409
thorax -5.03782 1.06763 0.137936
lowerneck -21.0137 -4.96882 -11.3503
upperneck 29.83 -4.53503 5.87883
head 14.1626 -2.27502 3.52733
rclavicle 8.38623e-017 -5.96354e-015
rhumerus -34.5864 -18.2227 -76.799
rradius 24.2482
rwrist 11.8633
rhand -14.8733 8.90219
rfingers 7.12502
rthumb 11.287 -20.7741
lclavicle 8.38623e-017 -5.96354e-015
lhumerus -32.7496 2.18414 86.3871
lradius 26.8489
lwrist -15.8727
lhand -15.8244 26.4568
lfingers 7.12502
lthumb 10.3696 56.1811
rfemur -1.37384 -3.86717 26.7832
rtibia 14.2603
rfoot -7.62834 3.07648
rtoes 2.6945
lfemur -11.4642 -1.01432 -16.8715
ltibia 64.7426
lfoot 9.43961 -9.19534
ltoes -5.13095
313
root 13.1887 18.1787 14.3674 269.338 86.9702 272.878
lowerback 9.79547 1.49567 1.99139
upperback 0.502757 2.32201 1.45574
thorax -4.95219 1.13245 0.0729726
lowerneck -21.2729 -4.99026 -11.2155
upperneck 30.1482 -4.52695 5.71951
head 14.3496 -2.27654 3.44891
rclavicle -1.82571e-014 -1.31198e-014
rhumerus -34.0015 -18.3599 -76.8464
rradius 24.2042
rwrist 11.861
rhand -14.5094 8.96883
rfingers 7.12502
rthumb 11.6379 -20.688
lclavicle -1.82571e-014 -1.31198e-014
lhumerus -32.8509 2.90834 85.9983
lradius 26.9417
lwrist -15.8303
lhand -16.7656 27.566
lfingers 7.12502
lthumb 9.46147 57.3337
rfemur -1.0432 -3.7293 26.8302
rtibia 14.6088
rfoot -8.17033 3.00475
rtoes 3.37419
lfemur -12.6273 -1.02883 -16.7721
ltibia 65.2754
lfoot 9.27723 -8.18125
ltoes -1.33126
314
root 13.3131 18.1729 14.3927 267.674 87.1937 271.499
lowerback 10.173 1.57533 1.74843
upperback 0.545358 2.40347 1.32454
thorax -5.12217 1.17493 0.0504663
lowerneck -21.2429 -4.94477 -11.0586
upperneck 30.2368 -4.52628 5.74203
head 14.3766 -2.25357 3.43548
rclavicle -4.26766e-015 -2.28602e-015
rhumerus -33.5667 -18.4197 -77.0079
rradius 24.1985
rwrist 11.5627
rhand -14.026 9.11552
rfingers 7.12502
rthumb 12.1041 -20.5144
lclavicle -4.26766e-015 -2.28602e-015
lhumerus -33.0517 3.94167 85.2296
lradius 27.1502
lwrist -14.4961
lhand -19.3938 29.2575
lfingers 7.12502
lthumb 6.92503 59.1242
rfemur -0.41634 -3.60816 26.633
rtibia 14.9629
rfoot -8.73581 2.76106
rtoes 3.69137
lfemur -13.4599 -1.11413 -16.9432
ltibia 65.6072
lfoot 8.84592 -7.61157
ltoes 0.774989
315
root 13.4347 18.1521 14.4154 266.186 87.4497 270.37
lowerback 10.6694 1.66225 1.51607
upperback 0.581127 2.49688 1.19192
thorax -5.36548 1.22264 0.0137174
lowerneck -21.2275 -4.94072 -11.04
upperneck 30.3622 -4.54867 5.8141
head 14.4326 -2.24978 3.46302
rclavicle 1.24799e-014 -2.48481e-015
rhumerus -33.2582 -18.2441 -77.2347
rradius 24.3947
rwrist 11.1683
rhand -13.7361 9.02833
rfingers 7.12502
rthumb 12.3836 -20.5849
lclavicle 1.24799e-014 -2.48481e-015
lhumerus -33.4396 4.0374 85.0351
lradius 27.1013
lwrist -14.5798
lhand -15.6864 24.5118
lfingers 7.12502
lthumb 10.5027 54.2294
rfemur 0.38426 -3.54626 26.4088
rtibia 15.0726
rfoot -9.17839 2.49968
rtoes 4.40932
lfemur -14.1125 -0.986641 -17.2297
ltibia 65.7646
lfoot 7.84491 -7.42065
ltoes -1.39645
316
root 13.5639 18.1383 14.4278 269.568 87.1244 273.638
lowerback 10.5292 1.77124 1.95432
upperback 0.559826 2.69212 1.21001
thorax -5.28873 1.30926 -0.237718
lowerneck -21.1696 -4.96152 -11.015
upperneck 30.2562 -4.57169 5.74454
head 14.3728 -2.26658 3.422
rclavicle 1.23557e-014 1.48592e-014
rhumerus -32.9074 -18.164 -77.3767
rradius 24.6214
rwrist 11.3227
rhand -13.9311 8.9528
rfingers 7.12502
rthumb 12.1955 -20.6717
lclavicle 1.23557e-014 1.48592e-014
lhumerus -33.702 4.1636 84.9063
lradius 27.2973
lwrist -13.0759
lhand -17.9388 26.527
lfingers 7.12502
lthumb 8.32939 56.3428
rfemur 0.624192 -3.47242 26.8291
rtibia 15.2964
rfoot -9.64044 2.3982
rtoes 4.63894
lfemur -15.189 -0.763094 -16.8343
ltibia 65.8081
lfoot 6.76342 -7.05233
ltoes -1.82161
317
root 13.6961 18.1394 14.4392 274.765 86.8852 278.575
lowerback 10.2598 1.90474 2.24517
upperback 0.487197 2.89409 1.18873
thorax -5.19558 1.40167 -0.443405
lowerneck -21.0618 -4.89975 -10.8565
upperneck 30.0326 -4.523 5.64883
head 14.2364 -2.24093 3.35777
rclavicle -2.5856e-014 -1.50082e-014
rhumerus -32.5162 -17.7936 -77.6652
rradius 24.8028
rwrist 11.3054
rhand -14.4322 8.86105
rfingers 7.12502
rthumb 11.7124 -20.7915
lclavicle -2.5856e-014 -1.50082e-014
lhumerus -34.2027 3.9071 84.916
lradius 28.0089
lwrist -11.1123
lhand -19.3033 28.0589
lfingers 7.12502
lthumb 7.01235 57.9227
rfemur 0.660547 -3.17936 27.1331
rtibia 15.6484
rfoot -10.1527 2.21102
rtoes 5.5194
lfemur -16.4233 -0.589681 -16.5177
ltibia 65.735
lfoot 5.82694 -6.55361
ltoes 1.2916
318
root 13.8129 18.1231 14.4515 282.303 86.8484 286.238
lowerback 10.5951 2.09245 2.26634
upperback 0.466468 3.15214 1.10005
thorax -5.39353 1.52383 -0.599245
lowerneck -20.9762 -4.84927 -10.6688
upperneck 29.9106 -4.49078 5.5354
head 14.1507 -2.22117 3.28177
rclavicle -3.16937e-014 -5.93869e-015
rhumerus -32.0742 -17.4455 -77.9668
rradius 24.8883
rwrist 10.8636
rhand -14.6781 8.82317
rfingers 7.12502
rthumb 11.4752 -20.8428
lclavicle -3.16937e-014 -5.93869e-015
lhumerus -34.9033 3.89019 84.767
lradius 28.9639
lwrist -9.85591
lhand -19.5854 28.6329
lfingers 7.12502
lthumb 6.74007 58.5057
rfemur 1.01491 -3.03011 27.0719
rtibia 16.0508
rfoot -10.603 2.39388
rtoes 7.06011
lfemur -17.232 -0.812927 -16.7066
ltibia 65.5237
lfoot 4.65289 -5.77389
ltoes 2.70447
319
root 13.9296 18.1079 14.4569 280.744 86.8424 284.297
lowerback 10.3808 2.15437 2.53193
upperback 0.344402 3.25124 0.970774
thorax -5.37703 1.56244 -0.890341
lowerneck -20.9798 -4.9035 -10.6858
upperneck 29.855 -4.59607 5.62833
head 14.1411 -2.25525 3.30147
rclavicle 5.92513e-015 -4.73977e-015
rhumerus -31.684 -16.9607 -78.3519
rradius 25.2457
rwrist 10.0077
rhand -14.6678 8.66854
rfingers 7.12502
rthumb 11.4851 -20.9968
lclavicle 5.92513e-015 -4.73977e-015
lhumerus -35.2139 3.94099 84.4953
lradius 29.3953
lwrist -8.74678
lhand -17.9336 27.8426
lfingers 7.12502
lthumb 8.3344 57.6582
rfemur 0.642707 -3.11514 27.12
rtibia 16.7443
rfoot -11.0686 2.41346
rtoes 6.16986
lfemur -18.6804 -0.820099 -16.7224
ltibia 65.083
lfoot 3.41537 -5.75895
ltoes 0.718532
320
root 14.051 18.0823 14.4738 274.505 86.8892 278.297
lowerback 10.7296 2.13577 2.61671
upperback 0.390489 3.2459 0.910622
thorax -5.51615 1.55529 -1.01428
lowerneck -20.9365 -4.97519 -10.8541
upperneck 29.7991 -4.70859 5.82185
head 14.1308 -2.29617 3.38745
rclavicle -1.48351e-014 1.86361e-015
rhumerus -31.3649 -16.7547 -78.6133
rradius 25.604
rwrist 9.61839
rhand -14.7797 8.47196
rfingers 7.12502
rthumb 11.3773 -21.1994
lclavicle -1.48351e-014 1.86361e-015
lhumerus -35.2499 3.97867 84.2842
lradius 29.1782
lwrist -7.74635
lhand -16.9902 26.6927
lfingers 7.12502
lthumb 9.24483 56.4701
rfemur 0.990774 -2.99571 27.2884
rtibia 17.4966
rfoot -11.7168 1.70511
rtoes 4.45424
lfemur -19.3266 -1.0331 -16.6677
ltibia 64.4761
lfoot 2.14306 -5.78526
ltoes -0.072901
321
root 14.1844 18.0709 14.4911 286.131 87.6468 290.133
lowerback 10.9249 2.37876 1.66743
upperback 0.481845 3.44347 0.721542
thorax -5.56612 1.67375 -0.717144
lowerneck -20.9769 -5.00245 -11.0058
upperneck 29.8164 -4.66946 5.77297
head 14.1479 -2.30363 3.40048
rclavicle -2.8679e-014 -6.59717e-015
rhumerus -30.9556 -16.2481 -78.7862
rradius 25.949
rwrist 9.1924
rhand -14.8469 8.21868
rfingers 7.12502
rthumb 11.3124 -21.4562
lclavicle -2.8679e-014 -6.59717e-015
lhumerus -35.388 4.20787 84.2287
lradius 29.0715
lwrist -6.86537
lhand -17.5176 26.6759
lfingers 7.12502
lthumb 8.73588 56.4751
rfemur 1.32404 -2.85087 26.3623
rtibia 18.2854
rfoot -12.4244 1.88522
rtoes 4.48856
lfemur -19.6201 -0.917524 -17.6549
ltibia 63.5022
lfoot 1.18316 -5.31536
ltoes 1.40904
